<?xml version="1.0" standalone="no"?>
<!DOCTYPE svg PUBLIC "-//W3C//DTD SVG 20010904//EN"
 "http://www.w3.org/TR/2001/REC-SVG-20010904/DTD/svg10.dtd">
<svg version="1.0" xmlns="http://www.w3.org/2000/svg"
 width="2001.000000pt" height="2001.000000pt" viewBox="0 0 2001.000000 2001.000000"
 preserveAspectRatio="xMidYMid meet">

<g transform="translate(0.000000,2001.000000) scale(0.100000,-0.100000)"
fill="#000000" stroke="none">
<path d="M10283 16820 c-75 -17 -1659 -878 -2418 -1313 -588 -337 -1140 -679
-1243 -771 -13 -12 -33 -38 -44 -59 -19 -38 -19 -75 -25 -2180 -6 -2135 -6
-2142 15 -2262 90 -517 346 -947 730 -1222 280 -201 1264 -704 2722 -1392 329
-155 281 -155 640 13 816 383 1809 873 2210 1091 428 233 557 321 724 496 237
247 399 567 482 949 l27 125 7 1190 c4 655 8 1632 9 2173 1 957 0 984 -19
1021 -25 50 -49 69 -238 194 -441 292 -1174 713 -2292 1319 -570 309 -1155
616 -1195 627 -44 12 -47 12 -92 1z m428 -614 c1319 -699 2450 -1338 2904
-1638 l110 -73 2 -610 c2 -335 -1 -1271 -6 -2080 l-8 -1470 -28 -115 c-99
-415 -311 -734 -620 -932 -314 -202 -1377 -738 -2598 -1311 l-139 -65 -81 38
c-693 321 -1752 840 -2202 1081 -435 232 -566 319 -703 464 -174 183 -298 424
-373 725 l-24 95 1 2083 c2 1594 5 2086 14 2097 17 20 346 228 622 393 436
260 1133 652 1848 1040 279 151 893 481 896 482 1 0 174 -92 385 -204z"/>
<path d="M10278 15892 l-48 -27 0 -907 0 -908 100 0 100 0 -2 906 -3 907 -50
27 -50 28 -47 -26z"/>
<path d="M10690 14872 l0 -850 93 -21 c50 -12 95 -21 100 -21 4 0 7 366 7 814
l0 814 -32 20 c-18 10 -63 36 -100 56 l-68 37 0 -849z"/>
<path d="M9843 15659 l-93 -51 0 -820 c0 -775 1 -819 18 -816 9 2 54 12 100
23 l82 20 0 847 c0 467 -3 848 -7 848 -5 -1 -50 -24 -100 -51z"/>
<path d="M9200 15425 c-175 -56 -230 -294 -99 -424 69 -69 194 -96 280 -59
202 87 212 379 15 472 -51 24 -140 29 -196 11z"/>
<path d="M11300 15425 c-175 -56 -230 -294 -99 -424 69 -69 194 -96 280 -59
121 52 189 198 147 319 -45 134 -193 208 -328 164z"/>
<path d="M8733 15119 c-124 -24 -202 -120 -203 -249 0 -106 49 -188 143 -236
47 -25 136 -29 193 -10 l49 16 165 -69 165 -69 3 -381 c1 -210 4 -381 7 -381
3 0 44 23 92 50 48 28 91 50 95 50 4 0 8 179 8 398 l0 399 -202 84 -203 84 -6
70 c-6 82 -32 138 -85 185 -62 54 -140 75 -221 59z"/>
<path d="M11833 15119 c-58 -11 -94 -31 -135 -77 -53 -58 -61 -79 -67 -161
l-6 -74 -205 -86 -205 -86 -3 -393 -2 -393 31 -17 c17 -9 63 -36 102 -58 l72
-42 5 386 5 385 164 68 164 69 44 -15 c118 -40 248 7 310 112 38 65 43 161 13
231 -48 112 -167 175 -287 151z"/>
<path d="M8079 14693 c-52 -9 -132 -66 -164 -117 -27 -45 -30 -57 -30 -136 0
-79 3 -91 30 -136 32 -51 120 -114 160 -114 12 0 176 -137 428 -360 224 -198
411 -360 416 -360 4 0 40 30 79 68 l72 67 -375 329 -374 329 23 31 c45 61 58
147 34 228 -14 49 -78 123 -128 148 -39 20 -124 32 -171 23z"/>
<path d="M12479 14693 c-52 -9 -132 -66 -164 -117 -25 -41 -31 -62 -33 -125
-3 -69 -1 -81 27 -135 17 -32 30 -60 29 -61 -181 -158 -734 -648 -736 -653 -1
-4 31 -37 71 -74 l74 -66 412 364 c241 212 421 364 432 364 53 0 143 72 175
139 23 48 29 131 14 186 -15 54 -78 128 -130 155 -39 20 -124 32 -171 23z"/>
<path d="M7615 14297 c-109 -42 -175 -135 -175 -248 0 -96 72 -199 163 -234
46 -17 150 -18 202 0 17 5 91 -55 400 -326 209 -182 393 -343 409 -358 18 -16
30 -22 33 -14 2 6 28 45 57 86 l54 74 -403 352 -402 352 0 67 c0 77 -16 122
-64 177 -65 73 -187 105 -274 72z"/>
<path d="M12885 14298 c-32 -11 -92 -52 -113 -78 -39 -48 -56 -97 -57 -167
l-1 -72 -385 -336 c-211 -185 -392 -345 -402 -354 -17 -17 -16 -21 38 -99 31
-45 58 -82 61 -82 2 0 187 160 410 356 l406 356 43 -12 c24 -7 73 -11 109 -8
207 13 308 265 168 420 -68 76 -185 108 -277 76z"/>
<path d="M10084 13815 c-462 -70 -867 -311 -1146 -680 -341 -452 -438 -1057
-257 -1600 91 -274 281 -560 495 -747 601 -525 1465 -583 2124 -143 386 258
649 654 742 1116 19 98 23 145 23 329 0 185 -3 231 -23 328 -143 706 -678
1242 -1377 1382 -141 28 -443 36 -581 15z m547 -214 c309 -66 563 -204 784
-425 225 -226 359 -473 427 -786 32 -150 32 -447 0 -596 -31 -144 -65 -242
-132 -379 -77 -159 -162 -277 -295 -410 -131 -131 -235 -207 -391 -286 -335
-170 -705 -211 -1071 -119 -722 182 -1223 884 -1155 1618 32 334 148 613 364
870 240 285 595 479 978 532 107 15 381 4 491 -19z"/>
<path d="M9648 12108 c-152 -332 -280 -611 -284 -621 -6 -16 3 -17 137 -15
l143 3 61 137 60 138 296 0 297 0 63 -140 63 -140 143 0 143 0 -13 28 c-6 15
-134 293 -283 617 l-271 590 -139 3 -139 2 -277 -602z m515 87 l93 -210 -189
-3 c-105 -1 -192 -1 -194 2 -2 2 33 86 78 187 45 101 88 200 97 219 8 19 17
31 19 25 2 -5 45 -104 96 -220z"/>
<path d="M10430 12688 c6 -13 131 -291 278 -618 l268 -595 142 -3 c78 -1 142
1 142 6 0 4 -124 282 -275 617 l-274 610 -146 3 -145 3 10 -23z"/>
<path d="M7541 13614 c-155 -78 -186 -290 -59 -411 151 -145 402 -59 433 149
23 154 -96 288 -255 288 -51 0 -78 -6 -119 -26z"/>
<path d="M12889 13613 c-187 -96 -183 -364 7 -459 28 -14 60 -19 114 -19 64 0
82 4 121 27 89 53 130 123 131 223 1 149 -103 254 -253 255 -52 0 -77 -6 -120
-27z"/>
<path d="M7307 12983 c-4 -3 -7 -48 -7 -100 l0 -93 595 0 c427 0 595 3 595 11
0 6 18 49 40 96 22 47 40 87 40 89 0 7 -1257 4 -1263 -3z"/>
<path d="M12135 12893 l44 -98 591 -3 590 -2 0 100 0 100 -634 0 -635 0 44
-97z"/>
<path d="M7302 12433 l3 -98 529 0 530 0 17 90 c10 50 18 93 18 98 1 4 -247 7
-549 7 l-551 0 3 -97z"/>
<path d="M12263 12516 c3 -8 11 -43 17 -77 6 -35 13 -74 16 -86 l4 -23 530 0
530 0 0 100 0 100 -551 0 c-468 0 -550 -2 -546 -14z"/>
<path d="M7300 11930 l0 -100 531 0 532 0 -7 46 c-3 26 -6 71 -6 100 l0 54
-525 0 -525 0 0 -100z"/>
<path d="M12315 12018 c-2 -7 -6 -52 -8 -100 l-5 -88 529 0 529 0 0 100 0 100
-520 0 c-408 0 -521 -3 -525 -12z"/>
<path d="M7300 11440 l0 -100 590 0 c325 0 590 3 590 6 0 3 -14 48 -31 100
l-32 94 -558 0 -559 0 0 -100z"/>
<path d="M12216 11453 c-16 -49 -31 -94 -33 -100 -4 -10 117 -13 586 -13 l591
0 0 100 0 100 -558 0 -558 0 -28 -87z"/>
<path d="M7579 11187 c-165 -62 -228 -258 -129 -396 106 -146 327 -141 426 9
l27 40 316 0 316 0 -255 -249 -255 -248 64 -71 c34 -40 68 -72 73 -72 12 0
628 600 628 611 0 5 -27 45 -60 89 -33 45 -67 94 -77 111 l-17 29 -366 0 -365
0 -35 47 c-51 68 -114 104 -192 109 -38 3 -77 -1 -99 -9z"/>
<path d="M12927 11186 c-58 -21 -103 -56 -133 -103 l-27 -43 -372 0 -372 0
-10 -22 c-6 -13 -40 -63 -77 -113 l-66 -90 107 -108 c60 -60 202 -199 316
-309 l208 -202 72 72 72 72 -255 250 -255 249 316 0 316 1 24 -37 c53 -82 165
-133 256 -117 129 23 216 127 215 260 -1 173 -175 297 -335 240z"/>
<path d="M8501 10316 l-383 -383 -69 -5 c-83 -6 -146 -40 -195 -105 -141 -185
35 -453 264 -402 125 27 212 148 199 274 -3 29 -12 66 -20 82 l-16 29 379 379
379 379 -71 66 c-39 36 -74 66 -77 68 -3 1 -179 -171 -390 -382z"/>
<path d="M11697 10633 l-67 -68 376 -376 377 -377 -17 -48 c-35 -104 -8 -215
69 -283 53 -46 100 -64 170 -64 148 -1 254 105 255 254 0 148 -111 259 -259
259 l-46 0 -385 385 c-212 212 -389 385 -395 385 -6 0 -41 -30 -78 -67z"/>
<path d="M9210 9812 c0 -598 -1 -621 -19 -627 -32 -10 -93 -76 -114 -124 -24
-54 -26 -150 -5 -201 21 -50 63 -96 117 -128 39 -23 57 -27 121 -27 54 0 86 5
114 19 144 72 190 255 96 384 -16 23 -48 53 -70 67 l-40 25 0 558 0 557 -68
37 c-37 20 -82 47 -99 59 l-33 21 0 -620z"/>
<path d="M11348 10368 l-98 -60 0 -557 0 -558 -26 -14 c-40 -21 -99 -93 -112
-137 -42 -140 26 -282 157 -327 125 -42 253 8 313 124 31 59 37 133 16 203
-13 44 -72 116 -112 137 l-26 14 0 619 c0 340 -3 617 -7 617 -5 -1 -52 -28
-105 -61z"/>
<path d="M10778 10146 l-88 -21 0 -847 c0 -467 3 -848 6 -848 4 0 49 23 100
51 l94 50 0 820 c0 649 -3 819 -12 818 -7 -1 -52 -11 -100 -23z"/>
<path d="M9750 9346 l0 -814 33 -20 c17 -10 62 -36 100 -56 l67 -37 0 849 0
850 -92 21 c-51 12 -96 21 -100 21 -5 0 -8 -366 -8 -814z"/>
<path d="M10210 9185 l0 -905 52 -29 52 -30 48 27 48 27 0 908 0 907 -100 0
-100 0 0 -905z"/>
<path d="M8736 9645 c-166 -59 -221 -277 -104 -410 53 -61 108 -85 191 -85 78
0 118 14 172 61 54 47 85 119 85 195 0 176 -177 299 -344 239z"/>
<path d="M11756 9645 c-56 -20 -107 -64 -138 -121 -23 -40 -28 -61 -28 -119 0
-111 51 -194 145 -236 49 -23 158 -25 208 -4 166 69 209 291 81 419 -70 70
-175 94 -268 61z"/>
<path d="M12322 6389 c-274 -35 -428 -228 -382 -474 26 -137 133 -245 300
-300 42 -14 142 -41 222 -60 157 -36 226 -65 273 -115 26 -27 30 -38 30 -90 0
-51 -4 -63 -30 -91 -49 -52 -107 -72 -205 -72 -105 1 -190 21 -298 73 -100 48
-153 83 -232 157 -33 31 -62 54 -64 52 -3 -2 -7 -61 -11 -130 l-8 -126 69 -52
c249 -188 577 -242 808 -132 87 41 140 91 178 169 31 62 33 74 33 167 0 89 -3
106 -28 157 -59 120 -171 185 -440 252 -235 60 -300 90 -349 165 -41 61 -12
162 59 203 143 84 470 -2 656 -172 l55 -50 26 105 c14 57 26 111 26 119 0 22
-124 111 -225 161 -146 73 -315 103 -463 84z"/>
<path d="M10388 6370 c-236 -58 -419 -227 -494 -456 -27 -82 -29 -100 -29
-239 0 -142 2 -155 31 -236 76 -212 236 -366 452 -437 102 -33 281 -41 399
-19 149 28 273 91 374 190 l59 57 0 260 0 260 -345 0 -345 0 0 -95 0 -95 230
0 231 0 -3 -122 -3 -121 -57 -39 c-87 -60 -156 -81 -279 -86 -167 -7 -272 32
-373 138 -91 96 -136 210 -136 350 0 310 247 529 553 490 139 -17 224 -57 322
-151 l60 -58 80 72 c44 39 80 74 80 79 0 17 -114 123 -175 163 -84 54 -147 80
-242 99 -107 22 -291 20 -390 -4z"/>
<path d="M7352 5691 c-172 -373 -312 -683 -312 -690 0 -8 36 -11 131 -9 l131
3 70 158 70 157 358 0 357 0 71 -157 71 -158 136 -3 c75 -1 135 1 132 5 -2 4
-145 315 -317 691 l-314 682 -136 0 -136 0 -312 -679z m579 137 c68 -154 126
-285 127 -290 2 -4 -114 -8 -258 -8 -206 0 -261 3 -257 13 30 77 253 567 257
567 3 0 62 -127 131 -282z"/>
<path d="M8730 5680 l0 -690 503 2 502 3 3 103 3 102 -381 0 -380 0 0 190 0
190 325 0 325 0 0 105 0 105 -325 0 -325 0 0 185 0 185 365 0 365 0 0 105 0
105 -490 0 -490 0 0 -690z"/>
<path d="M11440 5680 l0 -690 125 0 125 0 0 690 0 690 -125 0 -125 0 0 -690z"/>
<path d="M2470 4585 c-276 -56 -475 -244 -547 -515 -23 -89 -23 -282 1 -370
53 -197 182 -357 361 -445 108 -54 207 -75 351 -75 249 0 409 63 560 221 99
104 99 98 -2 173 l-87 63 -76 -77 c-115 -117 -232 -165 -406 -164 -245 1 -419
147 -471 395 -34 163 18 338 136 456 90 91 201 133 345 133 174 0 329 -71 425
-194 19 -25 39 -45 43 -46 6 0 97 65 176 126 2 2 -20 32 -49 68 -145 179 -343
266 -600 265 -52 -1 -124 -7 -160 -14z"/>
<path d="M4010 4586 c-161 -34 -291 -106 -398 -221 -125 -134 -181 -284 -182
-481 0 -338 212 -605 545 -685 76 -18 111 -20 230 -17 124 4 150 8 228 35 216
75 368 225 440 432 39 109 48 281 23 400 -53 251 -253 456 -511 526 -83 22
-292 28 -375 11z m354 -241 c91 -37 193 -132 236 -219 73 -148 75 -317 5 -464
-89 -187 -289 -293 -499 -263 -145 20 -260 90 -335 202 -107 160 -113 388 -15
555 54 92 182 186 291 214 21 5 85 8 143 6 87 -3 117 -8 174 -31z"/>
<path d="M13420 4584 c-153 -33 -286 -107 -384 -216 -69 -76 -139 -215 -162
-322 -24 -115 -16 -284 20 -391 67 -196 214 -352 406 -428 103 -41 174 -50
332 -45 164 6 255 30 368 95 64 38 177 141 217 199 l22 30 -90 67 -89 67 -70
-73 c-75 -79 -148 -125 -240 -150 -345 -96 -650 124 -650 468 0 233 141 424
354 481 67 18 195 17 274 -1 108 -26 170 -61 255 -147 48 -48 83 -76 90 -71
36 21 157 117 157 123 0 15 -76 105 -127 150 -100 90 -223 147 -366 170 -86
14 -239 11 -317 -6z"/>
<path d="M5120 3885 l0 -685 120 0 120 0 2 421 3 420 205 -430 205 -431 61 0
61 0 204 428 204 428 3 -418 2 -418 120 0 120 0 0 685 0 686 -112 -3 -112 -3
-240 -512 c-133 -282 -243 -513 -246 -513 -3 0 -115 232 -250 515 l-245 515
-112 0 -113 0 0 -685z"/>
<path d="M6800 3885 l0 -685 120 0 120 0 0 199 0 199 223 5 c245 6 307 16 415
69 160 79 242 221 242 419 0 197 -93 342 -272 424 -105 48 -172 55 -524 55
l-324 0 0 -685z m701 461 c59 -22 124 -77 150 -127 46 -92 32 -235 -32 -312
-69 -84 -169 -109 -409 -105 l-165 3 -3 283 -2 284 207 -4 c165 -4 218 -8 254
-22z"/>
<path d="M8110 3885 l0 -685 485 0 485 0 0 105 0 105 -360 0 -360 0 0 580 0
580 -125 0 -125 0 0 -685z"/>
<path d="M9310 3885 l0 -685 125 0 125 0 0 685 0 685 -125 0 -125 0 0 -685z"/>
<path d="M10072 3892 c-172 -373 -312 -682 -312 -685 0 -4 60 -7 133 -7 l132
0 70 160 70 160 358 -3 358 -2 71 -157 71 -158 134 0 c76 0 133 4 131 9 -1 5
-142 313 -313 685 l-310 675 -141 1 -140 0 -312 -678z m588 129 c66 -150 120
-276 120 -281 0 -6 -102 -10 -261 -10 -205 0 -260 3 -256 13 10 26 249 562
254 571 8 12 8 11 143 -293z"/>
<path d="M11450 3885 l0 -685 120 0 120 0 2 497 3 497 396 -500 396 -499 86
-3 87 -3 0 691 0 690 -120 0 -120 0 -2 -463 -3 -464 -365 463 -365 464 -117 0
-118 0 0 -685z"/>
<path d="M14430 3885 l0 -685 505 0 505 0 0 105 0 105 -380 0 -380 0 0 190 0
190 325 0 325 0 0 100 0 100 -325 0 -325 0 0 190 0 190 365 0 365 0 0 100 0
100 -490 0 -490 0 0 -685z"/>
<path d="M16452 3892 c-172 -373 -312 -682 -312 -685 0 -4 60 -7 133 -7 l132
0 70 160 70 160 358 -3 358 -2 71 -157 71 -158 134 0 c76 0 133 4 131 9 -1 5
-142 313 -313 685 l-310 675 -141 1 -140 0 -312 -678z m588 129 c66 -150 120
-276 120 -281 0 -6 -102 -10 -261 -10 -205 0 -260 3 -256 13 10 26 249 562
254 571 8 12 8 11 143 -293z"/>
<path d="M17870 3885 l0 -685 125 0 125 0 0 685 0 685 -125 0 -125 0 0 -685z"/>
</g>
</svg>
