<?xml version="1.0" standalone="no"?>
<!DOCTYPE svg PUBLIC "-//W3C//DTD SVG 20010904//EN"
 "http://www.w3.org/TR/2001/REC-SVG-20010904/DTD/svg10.dtd">
<svg version="1.0" xmlns="http://www.w3.org/2000/svg"
 width="2001.000000pt" height="2001.000000pt" viewBox="0 0 2001.000000 2001.000000"
 preserveAspectRatio="xMidYMid meet">

<g transform="translate(0.000000,2001.000000) scale(0.100000,-0.100000)"
fill="#000000" stroke="none">
<path d="M9900 16676 c-91 -34 -1550 -821 -2520 -1359 -1479 -821 -2643 -1528
-2742 -1667 -60 -83 -56 115 -63 -3185 l-7 -3030 21 -140 c106 -715 447 -1334
961 -1745 199 -159 602 -389 1425 -813 779 -401 2836 -1389 2953 -1419 87 -22
131 -8 428 130 1880 877 3493 1695 3939 2000 485 330 822 807 1010 1427 43
141 90 371 105 510 15 144 34 6116 19 6170 -29 107 -58 134 -399 357 -577 379
-1518 924 -2840 1645 -815 445 -2028 1090 -2105 1120 -40 15 -141 15 -185 -1z
m484 -787 c1489 -787 2880 -1558 3718 -2060 321 -193 710 -437 757 -477 l21
-17 -10 -2915 c-11 -3164 -7 -2991 -65 -3235 -122 -518 -398 -959 -770 -1233
-357 -263 -1860 -1030 -3783 -1932 l-258 -121 -245 114 c-1902 890 -3454 1682
-3797 1939 -254 189 -437 415 -588 723 -112 230 -181 451 -220 705 -15 100
-16 330 -9 3034 l7 2926 115 76 c710 470 2236 1340 4143 2362 523 280 584 312
594 312 5 0 180 -91 390 -201z"/>
<path d="M9921 15348 l-71 -39 0 -1299 0 -1300 145 0 145 0 0 1298 0 1299 -74
40 -75 40 -70 -39z"/>
<path d="M10520 13881 c0 -1216 0 -1221 20 -1221 21 0 212 -44 243 -55 16 -7
17 53 17 1168 l0 1175 -97 53 c-54 28 -117 63 -140 76 l-43 25 0 -1221z"/>
<path d="M9300 15016 l-135 -72 -3 -1178 -2 -1178 22 5 c31 7 240 58 256 63 9
3 12 255 12 1219 0 668 -3 1215 -7 1215 -5 0 -69 -33 -143 -74z"/>
<path d="M8373 14681 c-110 -41 -203 -139 -233 -244 -19 -70 -9 -200 20 -262
35 -74 122 -157 195 -185 88 -35 209 -34 287 2 289 133 297 535 13 673 -78 39
-203 46 -282 16z"/>
<path d="M11403 14685 c-149 -46 -251 -175 -261 -330 -18 -281 268 -476 524
-356 118 55 198 171 211 303 15 167 -98 335 -260 383 -61 18 -157 18 -214 0z"/>
<path d="M7675 14236 c-172 -54 -273 -199 -263 -377 8 -145 97 -270 228 -321
77 -30 206 -31 271 -1 l46 21 244 -102 244 -101 3 -548 c1 -301 4 -547 7 -547
3 0 33 17 67 38 35 21 98 57 141 81 l77 42 0 563 0 563 -297 124 -298 124 0
80 c-1 95 -21 160 -70 227 -41 56 -123 113 -190 134 -58 17 -156 17 -210 0z"/>
<path d="M12123 14236 c-100 -33 -182 -102 -230 -196 -24 -47 -28 -68 -30
-150 l-2 -95 -293 -122 -293 -122 -3 -569 -2 -569 62 -33 c35 -18 95 -53 135
-77 39 -24 74 -43 77 -43 3 0 7 246 8 547 l3 546 244 101 243 102 72 -24 c209
-71 431 60 476 281 32 159 -54 328 -204 402 -70 34 -193 44 -263 21z"/>
<path d="M6750 13625 c-107 -30 -193 -102 -241 -203 -28 -59 -38 -191 -19
-258 33 -119 148 -229 266 -255 40 -9 65 -22 92 -49 71 -69 1115 -985 1123
-985 4 0 55 43 113 95 83 73 104 97 94 105 -7 7 -245 216 -528 465 -283 249
-519 456 -524 461 -4 4 8 34 27 66 49 79 60 125 55 224 -4 105 -30 162 -108
240 -90 91 -228 128 -350 94z"/>
<path d="M13083 13630 c-90 -19 -184 -83 -231 -158 -82 -129 -81 -286 2 -411
l34 -50 -534 -472 c-294 -259 -533 -475 -532 -479 8 -21 200 -191 211 -187 11
4 1146 1001 1157 1017 3 4 28 12 55 19 253 63 364 349 219 567 -40 60 -83 95
-157 129 -59 27 -160 39 -224 25z"/>
<path d="M6089 13057 c-69 -29 -107 -55 -149 -104 -108 -122 -117 -311 -24
-450 42 -61 83 -94 162 -131 75 -34 202 -37 273 -5 l45 20 585 -513 c321 -282
587 -512 590 -511 4 1 31 38 60 82 30 44 66 96 82 116 l27 36 -577 507 -578
506 0 98 c0 90 -3 103 -32 163 -39 79 -102 140 -181 177 -82 38 -204 42 -283
9z"/>
<path d="M13673 13066 c-170 -55 -274 -220 -253 -400 l6 -49 -91 -81 c-51 -44
-313 -274 -583 -511 -426 -373 -489 -432 -479 -447 7 -9 43 -62 81 -117 38
-56 72 -101 76 -101 3 0 269 230 589 511 l583 511 62 -18 c141 -43 280 -12
376 85 86 86 105 134 105 261 0 96 -3 110 -29 164 -37 76 -96 135 -171 171
-48 24 -74 30 -144 32 -54 2 -102 -2 -128 -11z"/>
<path d="M9845 12389 c-596 -35 -1174 -293 -1599 -713 -772 -762 -965 -1931
-481 -2896 121 -240 253 -427 440 -619 378 -389 834 -631 1375 -728 131 -24
170 -26 410 -27 290 -1 371 8 609 65 914 222 1634 962 1841 1889 53 237 71
603 42 830 -59 450 -224 858 -494 1218 -92 123 -295 332 -419 432 -389 313
-897 517 -1360 545 -192 11 -237 12 -364 4z m456 -305 c486 -66 940 -298 1285
-656 170 -177 284 -339 393 -559 461 -928 208 -2050 -609 -2702 -385 -308
-871 -477 -1370 -477 -852 0 -1619 483 -1990 1253 -160 332 -230 666 -217
1032 30 818 503 1544 1242 1906 393 193 830 263 1266 203z"/>
<path d="M9417 10783 c-5 -7 -725 -1571 -788 -1711 l-28 -62 206 2 206 3 87
195 87 195 425 3 425 2 89 -200 89 -200 203 0 c111 0 202 3 202 8 0 4 -182
403 -405 887 l-405 880 -194 3 c-107 1 -197 -1 -199 -5z m337 -726 c75 -169
136 -310 136 -313 0 -2 -126 -4 -280 -4 l-279 0 50 113 c147 330 232 517 234
515 2 -2 64 -142 139 -311z"/>
<path d="M10134 10773 c4 -10 183 -411 399 -890 l392 -873 207 0 207 0 -32 73
c-19 39 -199 440 -402 890 l-368 817 -204 0 c-191 0 -205 -1 -199 -17z"/>
<path d="M6091 12120 c-105 -22 -213 -107 -261 -205 -21 -43 -25 -64 -25 -155
0 -93 3 -111 27 -162 34 -73 98 -137 174 -174 53 -26 69 -29 159 -29 87 0 107
3 157 27 70 32 138 99 174 170 36 70 45 199 20 280 -55 173 -247 285 -425 248z"/>
<path d="M13760 12116 c-98 -22 -169 -69 -224 -149 -126 -186 -60 -441 141
-543 53 -27 67 -29 163 -29 90 0 112 3 153 24 75 37 142 104 179 179 30 60 33
75 33 157 0 80 -4 97 -31 155 -53 112 -150 187 -268 209 -71 13 -75 13 -146
-3z"/>
<path d="M5660 11035 l0 -145 841 0 840 0 15 38 c9 20 38 84 65 141 27 57 49
105 49 107 0 2 -407 4 -905 4 l-905 0 0 -145z"/>
<path d="M12530 11177 c0 -1 29 -65 64 -142 l64 -140 846 -3 846 -2 0 145 0
145 -910 0 c-500 0 -910 -1 -910 -3z"/>
<path d="M5660 10385 l0 -145 757 2 757 3 23 120 c12 66 25 130 28 143 l5 22
-785 0 -785 0 0 -145z"/>
<path d="M12773 10509 c3 -12 16 -77 28 -145 l23 -124 763 0 763 0 0 145 0
145 -791 0 -791 0 5 -21z"/>
<path d="M5660 9665 l0 -145 756 0 756 0 -6 68 c-3 37 -9 102 -12 145 l-6 77
-744 0 -744 0 0 -145z"/>
<path d="M12846 9778 c-3 -18 -8 -84 -11 -145 l-6 -113 760 0 761 0 0 145 0
145 -750 0 -749 0 -5 -32z"/>
<path d="M5660 8965 l0 -145 844 0 843 0 -47 143 -48 142 -796 3 -796 2 0
-145z"/>
<path d="M12702 8977 c-24 -72 -46 -138 -49 -144 -4 -10 170 -13 846 -13 l851
0 0 145 0 145 -802 0 -803 0 -43 -133z"/>
<path d="M6091 8610 c-105 -22 -213 -107 -261 -205 -21 -43 -25 -64 -25 -155
0 -93 3 -111 27 -162 34 -73 98 -137 174 -174 53 -26 69 -29 159 -29 88 0 107
3 158 27 63 30 146 108 167 157 l12 31 457 -1 456 0 -365 -359 -365 -359 102
-103 102 -102 68 64 c171 162 833 815 833 821 0 4 -35 54 -78 111 -43 57 -94
130 -113 161 l-34 57 -525 0 -526 0 -40 57 c-88 128 -240 193 -383 163z"/>
<path d="M13755 8606 c-102 -25 -194 -94 -240 -179 l-20 -37 -530 0 -530 0
-40 -63 c-22 -34 -73 -106 -112 -159 -40 -54 -73 -100 -73 -103 0 -2 123 -125
273 -272 149 -147 352 -346 450 -443 l177 -174 100 99 c55 55 100 102 100 106
0 5 -332 335 -610 607 l-115 112 457 0 456 0 25 -42 c35 -59 92 -111 157 -145
50 -25 64 -28 160 -28 90 0 112 3 153 24 75 37 142 104 179 179 30 60 33 75
33 157 0 80 -4 97 -32 157 -52 111 -148 185 -267 207 -72 13 -86 13 -151 -3z"/>
<path d="M11962 7808 l-103 -102 544 -545 544 -546 -19 -39 c-46 -92 -44 -215
4 -315 29 -60 110 -140 173 -171 44 -22 63 -25 160 -25 101 0 114 2 163 28 72
38 138 106 170 175 24 50 27 70 27 157 0 87 -3 107 -27 157 -34 73 -103 142
-176 176 -45 21 -75 27 -147 30 l-90 3 -560 560 -560 559 -103 -102z"/>
<path d="M7371 7346 l-554 -554 -91 -4 c-75 -3 -103 -9 -148 -31 -69 -34 -141
-109 -176 -185 -23 -48 -27 -71 -27 -147 0 -82 3 -97 33 -157 66 -135 183
-208 331 -208 91 0 145 16 218 66 134 92 190 289 124 439 l-22 49 543 544 543
543 -105 100 c-57 54 -107 99 -110 99 -3 0 -254 -249 -559 -554z"/>
<path d="M8390 6626 l0 -884 -44 -26 c-54 -31 -116 -101 -147 -164 -20 -40
-24 -62 -24 -152 0 -96 2 -110 29 -163 102 -201 357 -267 543 -141 189 129
213 402 49 566 -22 22 -57 48 -78 59 l-38 19 -2 802 -3 803 -45 24 c-25 13
-87 51 -139 83 -51 32 -95 58 -97 58 -2 0 -4 -398 -4 -884z"/>
<path d="M11540 7472 c-30 -20 -91 -57 -135 -82 l-80 -46 -3 -801 -2 -801 -43
-26 c-58 -33 -114 -96 -146 -165 -22 -48 -26 -69 -26 -151 0 -82 4 -103 27
-152 37 -79 98 -142 177 -181 61 -30 73 -32 161 -31 104 1 148 15 227 73 92
67 152 207 139 326 -12 115 -92 237 -189 290 l-37 20 0 882 c0 486 -3 883 -7
882 -5 0 -33 -17 -63 -37z"/>
<path d="M10643 7106 l-123 -31 0 -1218 0 -1219 128 68 c70 37 133 71 140 77
9 7 12 256 12 1183 0 1112 -1 1174 -17 1172 -10 0 -73 -15 -140 -32z"/>
<path d="M9162 5958 l3 -1173 70 -38 c39 -21 103 -56 143 -78 l72 -40 0 1221
c0 1162 -1 1220 -18 1220 -10 0 -73 14 -140 30 -68 17 -125 30 -128 30 -2 0
-3 -528 -2 -1172z"/>
<path d="M9830 5721 l0 -1299 72 -37 72 -38 73 37 73 38 0 1299 0 1299 -145 0
-145 0 0 -1299z"/>
<path d="M7739 6397 c-100 -29 -192 -106 -240 -205 -20 -40 -24 -62 -24 -152
0 -95 3 -111 28 -161 34 -70 109 -142 185 -177 50 -23 69 -27 152 -27 83 1
102 4 152 28 283 137 283 537 1 669 -74 35 -182 45 -254 25z"/>
<path d="M12049 6387 c-162 -55 -258 -201 -247 -373 19 -286 343 -441 578
-277 211 147 208 466 -5 607 -100 67 -213 81 -326 43z"/>
</g>
</svg>
