<?xml version="1.0" standalone="no"?>
<!DOCTYPE svg PUBLIC "-//W3C//DTD SVG 20010904//EN"
 "http://www.w3.org/TR/2001/REC-SVG-20010904/DTD/svg10.dtd">
<svg version="1.0" xmlns="http://www.w3.org/2000/svg"
 width="2001.000000pt" height="594.000000pt" viewBox="0 0 2001.000000 594.000000"
 preserveAspectRatio="xMidYMid meet">

<g transform="translate(0.000000,594.000000) scale(0.100000,-0.100000)"
fill="#FFFFFF" stroke="none">
<path d="M3305 5189 c-725 -393 -1012 -553 -1295 -722 -201 -120 -358 -225
-374 -250 -12 -19 -15 -186 -16 -1092 -2 -758 1 -1086 9 -1125 51 -248 185
-457 376 -587 199 -135 1390 -723 1463 -723 35 0 153 53 607 273 545 263 849
429 951 520 114 102 218 273 264 437 32 109 38 356 39 1395 1 780 -1 883 -15
903 -42 60 -557 365 -1239 734 -430 233 -580 308 -611 307 -16 0 -86 -31 -159
-70z m424 -271 c629 -336 1097 -600 1360 -769 l53 -34 -6 -1016 c-6 -966 -8
-1019 -26 -1098 -52 -217 -176 -372 -395 -495 -144 -80 -748 -383 -1038 -520
l-208 -98 -227 107 c-316 150 -895 441 -1029 518 -62 35 -129 79 -150 97 -108
92 -195 235 -233 385 -19 76 -20 109 -20 1099 l0 1021 53 34 c190 125 596 359
1067 616 503 273 524 284 539 285 7 0 124 -59 260 -132z"/>
<path d="M3438 4799 c-17 -9 -18 -42 -18 -454 l0 -445 50 0 50 0 0 445 c0 429
-1 445 -19 455 -24 12 -41 12 -63 -1z"/>
<path d="M3223 4684 l-43 -26 0 -399 c0 -219 3 -399 6 -399 3 0 25 5 50 11
l44 11 0 414 c0 228 -3 414 -7 414 -5 -1 -27 -12 -50 -26z"/>
<path d="M3650 4296 l0 -414 36 -6 c19 -4 42 -10 50 -13 12 -4 14 50 12 398
l-3 403 -40 23 c-22 12 -43 23 -47 23 -5 0 -8 -186 -8 -414z"/>
<path d="M2893 4560 c-74 -45 -83 -139 -19 -197 41 -38 95 -44 146 -18 54 28
78 117 46 173 -32 59 -114 79 -173 42z"/>
<path d="M3923 4560 c-74 -45 -83 -139 -19 -197 41 -38 95 -44 146 -18 54 28
78 117 46 173 -32 59 -114 79 -173 42z"/>
<path d="M2664 4416 c-105 -47 -98 -200 11 -236 23 -7 45 -8 68 -2 28 8 46 4
113 -24 l79 -32 3 -186 c1 -102 5 -186 8 -186 3 0 25 12 50 26 l44 26 0 193 0
192 -97 40 -98 41 -7 41 c-12 68 -46 105 -109 115 -20 3 -47 0 -65 -8z"/>
<path d="M4184 4416 c-45 -20 -74 -62 -74 -106 l0 -38 -105 -43 -105 -43 0
-192 0 -192 46 -26 c26 -14 48 -26 50 -26 2 0 4 83 4 184 l0 183 85 36 c71 30
90 35 112 26 58 -22 136 19 154 82 32 104 -70 198 -167 155z"/>
<path d="M2344 4206 c-49 -22 -74 -61 -74 -118 0 -43 4 -54 34 -84 19 -19 41
-34 50 -34 9 0 56 -35 104 -77 48 -42 140 -124 205 -182 l118 -104 35 34 c19
18 33 36 32 40 -2 3 -83 77 -180 163 l-178 157 15 29 c33 64 7 143 -58 173
-42 20 -62 21 -103 3z"/>
<path d="M4504 4206 c-48 -22 -74 -61 -74 -115 0 -26 6 -56 14 -67 14 -19 5
-29 -170 -184 -102 -89 -182 -165 -177 -169 4 -3 22 -18 39 -34 l30 -27 204
180 c113 99 212 180 221 180 36 0 89 72 89 122 0 31 -29 85 -54 102 -35 22
-87 28 -122 12z"/>
<path d="M2143 4023 c-33 -6 -79 -57 -87 -93 -13 -67 17 -122 79 -146 34 -13
51 -14 74 -6 29 10 35 6 228 -163 109 -96 200 -174 203 -174 3 0 17 17 32 39
l27 40 -199 175 c-140 123 -198 180 -193 191 8 23 -25 100 -51 117 -26 18 -80
27 -113 20z"/>
<path d="M4713 4015 c-40 -17 -73 -69 -73 -115 0 -33 -12 -45 -195 -205 -107
-93 -195 -173 -195 -177 0 -11 44 -78 51 -78 3 0 95 78 205 174 192 168 199
173 230 164 74 -20 154 43 154 121 0 48 -33 99 -75 117 -42 17 -61 17 -102 -1z"/>
<path d="M3296 3774 c-219 -47 -410 -176 -533 -361 -192 -289 -193 -662 -1
-948 159 -239 414 -376 703 -377 277 -2 519 114 678 325 75 99 101 147 136
253 166 497 -147 1022 -663 1113 -83 15 -238 12 -320 -5z m337 -100 c93 -21
236 -89 309 -148 177 -142 281 -359 281 -586 0 -132 -20 -216 -80 -340 -39
-81 -59 -108 -142 -191 -83 -83 -109 -103 -191 -142 -164 -79 -299 -101 -459
-73 -306 53 -545 278 -616 578 -19 83 -19 241 1 331 76 338 381 585 727 586
55 1 129 -6 170 -15z"/>
<path d="M3246 3188 c-13 -29 -73 -162 -135 -295 -61 -133 -111 -247 -111
-253 0 -6 27 -10 66 -10 l66 0 31 70 31 70 145 0 146 0 32 -70 31 -70 66 0
c36 0 66 4 66 10 0 5 -61 141 -135 302 l-134 293 -71 3 -70 3 -24 -53z m142
-196 c23 -53 42 -100 42 -104 0 -5 -40 -8 -90 -8 -49 0 -90 3 -90 8 0 12 84
202 90 202 3 0 24 -44 48 -98z"/>
<path d="M3525 3223 c3 -10 63 -145 133 -300 96 -215 131 -283 146 -287 33 -9
128 -7 124 3 -1 4 -63 142 -137 305 l-134 296 -69 0 c-63 0 -69 -2 -63 -17z"/>
<path d="M2099 3685 c-56 -30 -80 -116 -50 -173 19 -35 70 -62 120 -62 83 0
141 93 107 173 -27 66 -114 96 -177 62z"/>
<path d="M4724 3685 c-83 -43 -86 -178 -4 -220 95 -49 201 23 187 128 -11 83
-107 131 -183 92z"/>
<path d="M1990 3330 l0 -50 288 0 288 0 21 50 21 50 -309 0 -309 0 0 -50z"/>
<path d="M4355 3330 l25 -50 290 0 290 0 0 50 0 50 -315 0 -315 0 25 -50z"/>
<path d="M1990 3110 l0 -50 259 0 258 0 7 38 c3 20 6 43 6 50 0 9 -60 12 -265
12 l-265 0 0 -50z"/>
<path d="M4424 3129 c3 -17 6 -40 6 -50 0 -18 13 -19 265 -19 l265 0 0 50 0
50 -271 0 -271 0 6 -31z"/>
<path d="M1990 2860 l0 -50 255 0 255 0 0 50 0 50 -255 0 -255 0 0 -50z"/>
<path d="M4447 2903 c-4 -3 -7 -26 -7 -50 l0 -43 260 0 260 0 0 50 0 50 -253
0 c-140 0 -257 -3 -260 -7z"/>
<path d="M1990 2620 l0 -50 286 0 286 0 -6 25 c-3 13 -11 36 -16 50 l-10 25
-270 0 -270 0 0 -50z"/>
<path d="M4396 2623 c-9 -26 -16 -48 -16 -50 0 -2 131 -3 290 -3 l290 0 0 50
0 50 -274 0 -274 0 -16 -47z"/>
<path d="M2099 2485 c-56 -30 -80 -116 -50 -173 19 -35 70 -62 120 -62 36 0
49 6 78 35 l35 35 152 0 151 -1 -124 -120 -125 -120 37 -37 37 -37 154 154
154 153 -41 54 -40 54 -178 0 c-170 0 -179 1 -189 21 -28 51 -116 74 -171 44z"/>
<path d="M4720 2484 c-14 -10 -33 -29 -43 -41 -18 -22 -23 -23 -196 -23 l-177
0 -37 -50 c-20 -27 -37 -54 -37 -59 0 -10 299 -301 309 -300 3 0 19 16 35 35
l29 35 -119 120 -119 119 152 0 c142 0 153 -1 163 -20 25 -47 117 -65 171 -33
66 39 77 140 21 196 -38 38 -113 48 -152 21z"/>
<path d="M2576 2071 c-171 -171 -192 -189 -229 -194 -76 -10 -127 -77 -113
-149 20 -102 149 -136 220 -57 26 29 28 37 24 90 l-4 58 178 178 c98 98 178
183 178 188 0 6 -15 25 -33 43 l-33 32 -188 -189z"/>
<path d="M4140 2225 l-34 -35 185 -188 c176 -177 185 -188 176 -213 -12 -32
-2 -86 21 -117 44 -57 145 -58 195 -2 69 77 6 210 -100 210 -23 0 -62 34 -218
190 l-191 190 -34 -35z"/>
<path d="M2920 1822 l0 -297 -30 -28 c-98 -93 -13 -251 116 -215 98 27 123
139 48 212 l-34 33 0 269 0 269 -45 28 c-25 15 -48 27 -50 27 -3 0 -5 -134 -5
-298z"/>
<path d="M3968 2092 l-48 -27 0 -272 0 -271 -35 -35 c-31 -31 -35 -41 -35 -85
0 -40 6 -57 26 -81 76 -91 224 -38 224 81 0 38 -30 92 -59 108 -20 10 -21 20
-23 310 l-3 299 -47 -27z"/>
<path d="M3693 1987 l-43 -11 0 -419 0 -418 50 27 50 27 0 404 c0 221 -3 402
-7 402 -5 -1 -27 -7 -50 -12z"/>
<path d="M3180 1592 l0 -399 50 -27 50 -27 0 415 0 415 -37 10 c-21 6 -44 11
-50 11 -10 0 -13 -86 -13 -398z"/>
<path d="M3414 1951 c-2 -2 -4 -201 -4 -442 l0 -439 24 -15 c19 -13 28 -14 50
-4 l26 12 0 447 0 447 -46 -1 c-25 0 -47 -3 -50 -5z"/>
<path d="M2684 1736 c-49 -22 -74 -61 -74 -118 0 -43 5 -55 33 -83 102 -102
264 8 202 138 -29 62 -101 90 -161 63z"/>
<path d="M4173 1739 c-79 -23 -112 -133 -58 -198 91 -108 257 -17 216 118 -19
65 -89 100 -158 80z"/>
<path d="M8360 4085 c-199 -55 -352 -210 -401 -405 -21 -85 -17 -232 9 -315
24 -79 80 -172 137 -229 121 -122 316 -182 505 -156 139 19 252 72 340 160
l40 40 0 210 0 210 -280 0 -280 0 0 -85 0 -85 180 0 180 0 0 -85 0 -85 -46
-30 c-68 -42 -136 -62 -218 -63 -137 -1 -251 58 -314 163 -44 75 -56 121 -55
215 1 105 28 177 94 250 70 75 138 108 244 113 133 7 240 -32 327 -119 l49
-49 70 62 c38 35 69 66 69 70 0 18 -77 91 -139 132 -104 69 -173 89 -326 93
-94 2 -145 -1 -185 -12z"/>
<path d="M9795 4086 c-69 -22 -119 -53 -161 -98 -59 -64 -77 -118 -72 -220 4
-96 22 -139 80 -198 58 -57 144 -95 313 -135 159 -38 187 -49 225 -90 31 -33
34 -93 5 -125 -38 -42 -75 -54 -160 -53 -136 1 -276 63 -402 177 l-61 56 -6
-67 c-4 -38 -8 -86 -11 -108 -5 -48 -3 -50 55 -97 273 -218 686 -197 793 41
29 64 29 178 0 242 -47 104 -134 156 -363 214 -213 54 -265 88 -265 170 0 170
323 149 544 -35 40 -34 63 -47 66 -38 2 7 14 51 25 96 24 95 24 92 -49 146
-65 48 -175 101 -247 120 -74 19 -251 20 -309 2z"/>
<path d="M6220 4037 c-11 -24 -123 -268 -249 -543 l-230 -499 111 -3 c81 -2
115 1 123 10 7 7 34 64 61 126 l49 112 270 0 271 0 54 -122 55 -123 118 -3
c64 -1 117 -1 117 0 0 2 -112 246 -248 543 l-249 540 -117 3 -117 3 -19 -44z
m230 -396 c49 -112 90 -205 90 -207 0 -2 -84 -4 -186 -4 -145 0 -185 3 -181
13 19 48 181 406 184 404 1 -2 43 -94 93 -206z"/>
<path d="M7070 3535 l0 -545 400 0 400 0 0 95 0 95 -295 0 -295 0 0 135 0 135
255 0 255 0 0 90 0 90 -255 0 -255 0 0 135 0 135 285 0 285 0 0 90 0 90 -390
0 -390 0 0 -545z"/>
<path d="M9170 3535 l0 -545 110 0 110 0 0 545 0 545 -110 0 -110 0 0 -545z"/>
<path d="M6255 2704 c-141 -30 -223 -72 -311 -159 -119 -119 -172 -262 -161
-439 9 -154 66 -277 176 -378 115 -107 259 -154 441 -145 126 7 214 32 296 85
62 41 174 154 174 176 0 8 -33 38 -74 69 l-73 55 -51 -58 c-110 -125 -292
-170 -455 -114 -70 24 -157 108 -193 186 -26 56 -29 74 -29 163 0 88 4 107 28
160 92 198 322 269 534 164 43 -20 79 -49 114 -89 l52 -58 73 55 c41 31 74 59
74 63 0 14 -77 106 -117 139 -56 47 -168 99 -248 116 -65 14 -203 18 -250 9z"/>
<path d="M7410 2694 c-140 -30 -278 -123 -355 -240 -118 -178 -120 -434 -6
-612 132 -203 388 -301 646 -247 309 65 499 362 434 677 -63 304 -386 494
-719 422z m231 -188 c111 -26 197 -98 248 -205 22 -49 26 -69 26 -156 0 -87
-3 -107 -27 -157 -37 -80 -105 -149 -181 -184 -53 -25 -74 -29 -152 -29 -80 0
-97 3 -157 32 -79 37 -137 94 -175 171 -25 52 -28 67 -28 167 0 100 3 115 28
167 78 158 244 235 418 194z"/>
<path d="M14731 2695 c-141 -32 -257 -109 -334 -221 -158 -232 -131 -543 63
-734 200 -197 564 -215 797 -39 53 40 136 135 131 150 -2 4 -36 32 -77 62
l-75 54 -54 -59 c-68 -73 -117 -103 -207 -124 -183 -43 -351 28 -425 180 -61
123 -61 238 0 363 70 141 225 213 396 184 100 -18 163 -52 232 -126 l60 -64
72 54 c40 30 75 57 78 59 6 7 -39 67 -86 113 -54 54 -148 111 -221 134 -87 27
-262 34 -350 14z"/>
<path d="M8280 2145 l0 -545 105 0 105 0 2 305 3 306 150 -316 150 -316 55 3
54 3 146 307 c80 169 149 310 153 314 4 4 7 -131 7 -299 l0 -307 100 0 100 0
0 545 0 545 -93 0 -92 0 -185 -394 c-102 -217 -188 -391 -192 -388 -4 4 -90
181 -191 392 l-183 385 -97 3 -97 3 0 -546z"/>
<path d="M9580 2146 l0 -546 110 0 110 0 0 155 0 155 138 0 c167 0 248 12 327
49 143 66 215 181 215 341 0 174 -98 306 -270 362 -59 19 -92 22 -347 26
l-283 4 0 -546z m539 348 c121 -35 176 -142 139 -267 -7 -22 -27 -55 -45 -73
-49 -49 -112 -64 -275 -64 l-138 0 0 210 0 210 133 0 c92 0 150 -5 186 -16z"/>
<path d="M10610 2145 l0 -545 385 0 385 0 0 90 0 90 -277 2 -278 3 -3 453 -2
452 -105 0 -105 0 0 -545z"/>
<path d="M11540 2145 l0 -545 105 0 105 0 0 545 0 545 -105 0 -105 0 0 -545z"/>
<path d="M12366 2662 c-22 -42 -486 -1053 -486 -1058 0 -3 52 -3 117 -2 l116
3 55 123 55 122 269 -2 269 -3 54 -120 54 -120 116 -3 c63 -1 115 1 115 5 0 4
-111 249 -247 545 l-248 538 -112 0 -112 0 -15 -28z m217 -410 c48 -109 87
-201 87 -205 0 -4 -81 -7 -181 -7 -168 0 -181 1 -175 18 20 53 172 392 177
392 3 0 44 -89 92 -198z"/>
<path d="M13200 2145 l0 -545 105 0 105 0 2 374 3 373 300 -378 300 -379 73 0
72 0 0 550 0 550 -105 0 -105 0 -2 -348 -3 -349 -274 349 -275 348 -98 0 -98
0 0 -545z"/>
<path d="M15520 2145 l0 -545 400 0 400 0 0 90 0 90 -292 2 -293 3 0 135 0
135 253 3 252 2 0 90 0 90 -255 0 -256 0 3 133 3 132 283 3 282 2 0 90 0 90
-390 0 -390 0 0 -545z"/>
<path d="M17093 2162 c-133 -290 -245 -535 -249 -545 -6 -16 2 -17 111 -15
l117 3 54 120 53 120 269 3 270 2 55 -122 55 -123 117 -3 c109 -2 117 -1 111
15 -4 10 -116 255 -249 545 l-242 528 -115 0 -115 0 -242 -528z m444 101 c45
-104 85 -196 89 -205 6 -17 -7 -18 -175 -18 -100 0 -181 3 -181 8 0 12 175
402 180 402 3 0 42 -84 87 -187z"/>
<path d="M18190 2145 l0 -545 105 0 105 0 0 545 0 545 -105 0 -105 0 0 -545z"/>
</g>
</svg>
